<svg width="33" height="32" viewBox="0 0 33 32" fill="none" xmlns="http://www.w3.org/2000/svg">
<path d="M10.3436 9.35016L15.0011 1.44407C15.627 0.381671 17.1777 0.424299 17.7443 1.51948L21.7952 9.35016L31.3368 14.5182C32.4316 15.1112 32.4315 16.6823 31.3368 17.2752L21.7952 22.4433C20.741 24.5226 18.8982 28.1557 17.6737 30.5698C17.1267 31.6482 15.6241 31.7235 14.987 30.6958C13.5443 28.3686 11.4004 24.7911 10.3436 22.4433C7.88837 21.0008 3.92537 18.7209 1.39286 17.2678C0.337432 16.6622 0.341547 15.1384 1.39926 14.5369C3.95324 13.0843 7.94946 10.7964 10.3436 9.35016Z" fill="url(#paint0_linear_417_153)" stroke="#7686FF" stroke-width="0.0979827"/>
<defs>
<linearGradient id="paint0_linear_417_153" x1="16.4409" y1="-1" x2="16.4409" y2="33" gradientUnits="userSpaceOnUse">
<stop stop-color="#FFD980"/>
<stop offset="1" stop-color="#55D7BA"/>
</linearGradient>
</defs>
</svg>
